<svg width="182" height="36" viewBox="0 0 182 36" fill="none" xmlns="http://www.w3.org/2000/svg">
<g clip-path="url(#clip0_3_113)">
<path d="M25.3718 11.2471C23.3851 12.1844 21.2772 12.7529 19.0327 12.7529C16.4394 12.7529 14.574 12 12.6935 11.2471C10.813 10.4942 8.94768 9.75672 6.3544 9.75672C4.36773 9.75672 2.24457 10.2023 0.0152588 11.2625V6.76056C2.25974 5.70038 4.36773 5.2548 6.3544 5.2548C8.94768 5.2548 10.813 6.00768 12.6935 6.76056C14.574 7.51344 16.4394 8.25096 19.0327 8.25096C21.2772 8.25096 23.4003 7.68246 25.3718 6.76056C25.3718 8.26633 25.3718 9.75672 25.3718 11.2625V11.2471Z" fill="#5CFEC5"/>
<path d="M12.6783 13.5058V18.0077C10.7978 17.2548 8.93242 16.5173 6.33914 16.5173C4.35247 16.5173 2.22931 16.9629 0 18.023V13.5211C2.24448 12.4609 4.35247 12.0154 6.33914 12.0154C8.93242 12.0154 10.7978 12.7682 12.6783 13.5211V13.5058Z" fill="#5CFEC5"/>
<path d="M25.3718 4.50192C23.3851 5.43918 21.2771 6.00768 19.0326 6.00768C16.4393 6.00768 14.574 5.2548 12.6935 4.50192V0C14.574 0.752881 16.4393 1.4904 19.0326 1.4904C21.2771 1.4904 23.4003 0.93726 25.3566 0C25.3566 1.50576 25.3566 2.99616 25.3566 4.50192H25.3718Z" fill="#5CFEC5"/>
<path d="M25.3718 29.2548C23.3851 30.1921 21.2772 30.7606 19.0327 30.7606C16.4394 30.7606 14.574 30.0077 12.6935 29.2548C10.813 28.5019 8.94768 27.749 6.3544 27.749C4.36773 27.749 2.24457 28.1946 0.0152588 29.2548V24.7529C2.25974 23.6927 4.36773 23.2471 6.3544 23.2471C8.94768 23.2471 10.813 24 12.6935 24.7529C14.574 25.5058 16.4394 26.2433 19.0327 26.2433C21.2772 26.2433 23.4003 25.6748 25.3718 24.7529C25.3718 26.2586 25.3718 27.749 25.3718 29.2548Z" fill="#5CFEC5"/>
<path d="M12.6783 31.4981V36C10.7978 35.2471 8.93242 34.5096 6.33914 34.5096C4.35247 34.5096 2.22931 34.9552 0 36.0154V31.5134C2.24448 30.4533 4.35247 30.0077 6.33914 30.0077C8.93242 30.0077 10.7978 30.7606 12.6783 31.5134V31.4981Z" fill="#5CFEC5"/>
<path d="M25.3718 22.4942C23.3851 23.4315 21.2771 24 19.0326 24C16.4393 24 14.574 23.2471 12.6935 22.4942V17.9923C14.574 18.7452 16.4393 19.4981 19.0326 19.4981C21.2771 19.4981 23.4003 18.9296 25.3718 18.0077C25.3718 19.5134 25.3718 21.0038 25.3718 22.5096V22.4942Z" fill="#5CFEC5"/>
<path d="M51.9263 27.7337C49.788 27.7337 47.9681 27.242 46.4668 26.2586C44.9654 25.2753 43.919 23.9232 43.3275 22.1716L46.4819 20.2971C47.3767 22.8323 49.2269 24.1076 52.0173 24.1076C53.3822 24.1076 54.3983 23.8464 55.111 23.3086C55.8086 22.7708 56.1574 22.0487 56.1574 21.1421C56.1574 20.2356 55.7783 19.5442 55.0504 19.0525C54.3073 18.5608 52.9879 18.023 51.1074 17.4392C49.1814 16.8553 47.6193 16.1639 46.4213 15.3803C44.9805 14.3508 44.2526 12.8297 44.2526 10.8323C44.2526 8.83483 44.9502 7.25224 46.3606 6.08451C47.7406 4.90141 49.424 4.30218 51.4258 4.30218C53.185 4.30218 54.7471 4.7324 56.0968 5.6082C57.4465 6.484 58.4778 7.69782 59.2057 9.26505L56.1119 11.0781C55.1717 8.97311 53.6097 7.91293 51.4258 7.91293C50.3643 7.91293 49.515 8.15877 48.8781 8.66581C48.2411 9.17286 47.9226 9.84891 47.9226 10.7093C47.9226 11.5698 48.2411 12.2151 48.8781 12.6914C49.515 13.1831 50.6979 13.6901 52.4116 14.2279C53.4732 14.5967 54.0949 14.8118 54.2618 14.8732C54.5347 14.9654 55.0959 15.1805 55.9148 15.5186C56.5972 15.7951 57.128 16.1024 57.5375 16.4251C59.1905 17.7311 59.964 19.283 59.8275 21.0653C59.8275 23.1088 59.0995 24.7375 57.6285 25.936C56.2029 27.1191 54.3073 27.7029 51.9263 27.7029V27.7337Z" fill="#231F20"/>
<path d="M71.247 10.7708C73.0972 10.7708 74.5683 11.37 75.6905 12.5685C76.7976 13.767 77.3587 15.3803 77.3587 17.4238V27.3342H73.9162V17.7772C73.9162 16.5787 73.5977 15.6415 72.9607 14.9962C72.3238 14.3508 71.4594 14.0282 70.3523 14.0282C69.0935 14.0282 68.1078 14.4277 67.395 15.2113C66.6671 15.9949 66.3183 17.1472 66.3183 18.6837V27.3342H62.8757V4.7324H66.3183V13.2446C67.3799 11.5851 69.0177 10.7554 71.247 10.7554V10.7708Z" fill="#231F20"/>
<path d="M84.3196 8.12804C83.8949 8.55826 83.3793 8.77337 82.7879 8.77337C82.1964 8.77337 81.6808 8.55826 81.2258 8.12804C80.8012 7.68246 80.5889 7.14469 80.5889 6.54546C80.5889 5.94622 80.8012 5.42382 81.2258 4.9936C81.6504 4.54802 82.1661 4.31754 82.7879 4.31754C83.4096 4.31754 83.9253 4.54802 84.3499 4.9936C84.7745 5.42382 84.9868 5.94622 84.9868 6.54546C84.9868 7.14469 84.7594 7.6671 84.3196 8.12804ZM84.5167 27.3188H81.0742V11.1857H84.5167V27.3188Z" fill="#231F20"/>
<path d="M97.4528 10.7708C99.6215 10.7708 101.487 11.6005 103.064 13.2599C104.611 14.8886 105.384 16.9014 105.384 19.2676C105.384 21.6338 104.611 23.662 103.064 25.306C101.517 26.9347 99.6518 27.7644 97.4528 27.7644C95.0567 27.7644 93.1914 26.8579 91.8871 25.0602V33.8028H88.4446V11.1857H91.8871V13.5058C93.1762 11.6773 95.0415 10.7708 97.4528 10.7708ZM93.3127 22.9706C94.2681 23.9385 95.4662 24.4149 96.9069 24.4149C98.3476 24.4149 99.5456 23.9232 100.501 22.9706C101.456 21.9872 101.927 20.7426 101.927 19.2676C101.927 17.7926 101.441 16.5634 100.501 15.5954C99.5456 14.612 98.3476 14.105 96.9069 14.105C95.4662 14.105 94.2681 14.5967 93.3127 15.5954C92.3573 16.5634 91.8871 17.7926 91.8871 19.2676C91.8871 20.7426 92.3724 21.9718 93.3127 22.9706Z" fill="#231F20"/>
<path d="M115.924 27.7337C113.786 27.7337 111.966 27.242 110.465 26.2586C108.963 25.2753 107.917 23.9232 107.326 22.1716L110.48 20.2971C111.375 22.8323 113.225 24.1076 116.015 24.1076C117.38 24.1076 118.396 23.8464 119.109 23.3086C119.807 22.7708 120.156 22.0487 120.156 21.1421C120.156 20.2356 119.776 19.5442 119.048 19.0525C118.305 18.5608 116.986 18.023 115.105 17.4392C113.179 16.8553 111.617 16.1639 110.419 15.3803C108.979 14.3508 108.251 12.8297 108.251 10.8323C108.251 8.83483 108.948 7.25224 110.359 6.08451C111.739 4.90141 113.422 4.30218 115.424 4.30218C117.183 4.30218 118.745 4.7324 120.095 5.6082C121.445 6.484 122.476 7.69782 123.204 9.26505L120.11 11.0781C119.17 8.97311 117.608 7.91293 115.424 7.91293C114.362 7.91293 113.513 8.15877 112.876 8.66581C112.239 9.17286 111.921 9.84891 111.921 10.7093C111.921 11.5698 112.239 12.2151 112.876 12.6914C113.513 13.1831 114.696 13.6901 116.41 14.2279C117.471 14.5967 118.093 14.8118 118.26 14.8732C118.533 14.9654 119.094 15.1805 119.913 15.5186C120.595 15.7951 121.126 16.1024 121.536 16.4251C123.189 17.7311 123.962 19.283 123.826 21.0653C123.826 23.1088 123.098 24.7375 121.627 25.936C120.201 27.1191 118.305 27.7029 115.924 27.7029V27.7337Z" fill="#231F20"/>
<path d="M137.626 19.8361V11.1857H141.069V27.3188H137.626V25.2599C136.564 26.9193 134.927 27.749 132.697 27.749C130.847 27.749 129.376 27.1498 128.254 25.9667C127.147 24.7682 126.586 23.1549 126.586 21.1114V11.201H130.028V20.758C130.028 21.9565 130.347 22.8937 130.984 23.5391C131.62 24.1844 132.485 24.507 133.592 24.507C134.851 24.507 135.836 24.1076 136.549 23.3239C137.277 22.5403 137.626 21.388 137.626 19.8515V19.8361Z" fill="#231F20"/>
<path d="M154.035 10.7708C156.204 10.7708 158.069 11.6005 159.646 13.2599C161.193 14.8886 161.966 16.9014 161.966 19.2676C161.966 21.6338 161.193 23.662 159.646 25.306C158.099 26.9347 156.234 27.7644 154.035 27.7644C151.639 27.7644 149.774 26.8579 148.469 25.0602V33.8028H145.027V11.1857H148.469V13.5058C149.758 11.6773 151.624 10.7708 154.035 10.7708ZM149.895 22.9706C150.85 23.9385 152.048 24.4149 153.489 24.4149C154.93 24.4149 156.128 23.9232 157.083 22.9706C158.039 21.9872 158.509 20.7426 158.509 19.2676C158.509 17.7926 158.023 16.5634 157.083 15.5954C156.128 14.612 154.93 14.105 153.489 14.105C152.048 14.105 150.85 14.5967 149.895 15.5954C148.939 16.5634 148.469 17.7926 148.469 19.2676C148.469 20.7426 148.939 21.9718 149.895 22.9706Z" fill="#231F20"/>
<path d="M174.068 10.7708C176.237 10.7708 178.102 11.6005 179.68 13.2599C181.227 14.8886 182 16.9014 182 19.2676C182 21.6338 181.227 23.662 179.68 25.306C178.133 26.9347 176.267 27.7644 174.068 27.7644C171.672 27.7644 169.807 26.8579 168.503 25.0602V33.8028H165.06V11.1857H168.503V13.5058C169.792 11.6773 171.657 10.7708 174.068 10.7708ZM169.928 22.9706C170.884 23.9385 172.082 24.4149 173.522 24.4149C174.963 24.4149 176.161 23.9232 177.117 22.9706C178.072 21.9872 178.542 20.7426 178.542 19.2676C178.542 17.7926 178.072 16.5634 177.117 15.5954C176.161 14.612 174.963 14.105 173.522 14.105C172.082 14.105 170.884 14.5967 169.928 15.5954C168.973 16.5634 168.503 17.7926 168.503 19.2676C168.503 20.7426 168.988 21.9718 169.928 22.9706Z" fill="#231F20"/>
</g>
<defs>
<clipPath id="clip0_3_113">
<rect width="182" height="36" fill="white"/>
</clipPath>
</defs>
</svg>
