<svg width="48" height="48" viewBox="0 0 48 48" fill="none" xmlns="http://www.w3.org/2000/svg">
<path d="M34.8994 17.8722C33.1846 18.7782 31.3651 19.3278 29.4278 19.3278C27.1895 19.3278 25.5794 18.6 23.9563 17.8722C22.3331 17.1444 20.7231 16.4315 18.4847 16.4315C16.77 16.4315 14.9374 16.8622 13.0132 17.8871V13.5352C14.9505 12.5104 16.77 12.0796 18.4847 12.0796C20.7231 12.0796 22.3331 12.8074 23.9563 13.5352C25.5794 14.263 27.1895 14.9759 29.4278 14.9759C31.3651 14.9759 33.1977 14.4264 34.8994 13.5352C34.8994 14.9908 34.8994 16.4315 34.8994 17.8871V17.8722Z" fill="#5CFEC5"/>
<path d="M23.9431 20.0556V24.4074C22.3199 23.6796 20.7099 22.9667 18.4715 22.9667C16.7568 22.9667 14.9242 23.3974 13 24.4223V20.0704C14.9373 19.0456 16.7568 18.6149 18.4715 18.6149C20.7099 18.6149 22.3199 19.3426 23.9431 20.0704V20.0556Z" fill="#5CFEC5"/>
<path d="M34.8991 11.3519C33.1844 12.2579 31.3649 12.8074 29.4276 12.8074C27.1892 12.8074 25.5792 12.0796 23.9561 11.3519V7C25.5792 7.72778 27.1892 8.44072 29.4276 8.44072C31.3649 8.44072 33.1975 7.90602 34.8861 7C34.8861 8.45557 34.8861 9.89629 34.8861 11.3519H34.8991Z" fill="#5CFEC5"/>
<path d="M34.8994 35.2796C33.1846 36.1857 31.3651 36.7352 29.4278 36.7352C27.1895 36.7352 25.5794 36.0074 23.9563 35.2796C22.3331 34.5519 20.7231 33.8241 18.4847 33.8241C16.77 33.8241 14.9374 34.2548 13.0132 35.2796V30.9278C14.9505 29.9029 16.77 29.4722 18.4847 29.4722C20.7231 29.4722 22.3331 30.2 23.9563 30.9278C25.5794 31.6556 27.1895 32.3685 29.4278 32.3685C31.3651 32.3685 33.1977 31.819 34.8994 30.9278C34.8994 32.3834 34.8994 33.8241 34.8994 35.2796Z" fill="#5CFEC5"/>
<path d="M23.9431 37.4481V41.8C22.3199 41.0722 20.7099 40.3593 18.4715 40.3593C16.7568 40.3593 14.9242 40.79 13 41.8149V37.463C14.9373 36.4382 16.7568 36.0074 18.4715 36.0074C20.7099 36.0074 22.3199 36.7352 23.9431 37.463V37.4481Z" fill="#5CFEC5"/>
<path d="M34.8991 28.7444C33.1844 29.6505 31.3649 30.2 29.4276 30.2C27.1892 30.2 25.5792 29.4722 23.9561 28.7444V24.3926C25.5792 25.1204 27.1892 25.8481 29.4276 25.8481C31.3649 25.8481 33.1975 25.2986 34.8991 24.4074C34.8991 25.863 34.8991 27.3037 34.8991 28.7593V28.7444Z" fill="#5CFEC5"/>
</svg>
